<svg width="32" height="32" viewBox="0 0 32 32" fill="none" xmlns="http://www.w3.org/2000/svg">
<path d="M31.2836 13.5575C30.7533 9.93894 29.0605 6.62676 26.4999 4.19992C23.6414 1.49084 19.8926 0 15.9423 0C11.992 0 8.24496 1.49084 5.38471 4.19992C2.82581 6.62676 1.13308 9.94376 0.602701 13.5575H0V18.4425H0.602701C1.13308 22.0611 2.82581 25.3732 5.38471 27.8001C8.24496 30.5067 11.9938 32 15.9423 32C19.8909 32 23.6414 30.5067 26.4999 27.8001C28.9934 25.4384 30.7326 22.0345 31.2905 18.4425H32V13.5575H31.2836ZM5.56724 4.57625C8.37411 1.92024 12.054 0.453524 15.9423 0.453524C19.8306 0.453524 23.5191 1.91783 26.3191 4.57384C28.7867 6.91383 30.4261 10.0933 30.9547 13.5551H28.5973C27.3919 7.83294 22.0985 3.69815 15.9423 3.69815C9.81542 3.70057 4.49443 7.84501 3.28903 13.5575H0.935048C1.4637 10.103 3.09961 6.91383 5.56724 4.57625ZM27.6898 18.4425H28.2546C28.2168 18.609 28.1754 18.7754 28.1324 18.9395L27.6898 18.4425ZM3.78841 19.0287L3.64032 18.4425H4.30501L3.78841 19.0287ZM0.325459 17.9866V14.0134H4.51165V17.9866H0.325459ZM26.3277 27.4213C23.5209 30.0749 19.8358 31.5441 15.9509 31.5441C12.0661 31.5441 8.38272 30.0798 5.57585 27.4213C3.09961 25.0838 1.4637 21.9043 0.935048 18.4425H3.29247C3.36779 18.8061 3.45865 19.1629 3.56455 19.5112L3.63687 19.7934L3.65065 19.7766C5.33821 24.8015 10.2752 28.3067 15.9423 28.3067C22.0968 28.3067 27.3885 24.1743 28.5973 18.4522L30.953 18.4956C30.3882 21.9236 28.7092 25.1585 26.3191 27.4213H26.3277ZM31.6832 17.9866H27.4884V14.0134H31.6745L31.6832 17.9866Z" fill="#CD8B53"/>
<path d="M21.5377 25.6346C21.988 25.6388 22.4309 25.4515 22.4832 25.4296C21.7808 25.3924 21.0913 25.1549 20.4567 24.7316C20.324 24.6366 20.1852 24.5589 20.0421 24.4998C20.0421 24.4998 20.6954 24.2088 21.1801 23.8757C21.1144 24.16 21.485 24.4681 21.7284 24.5193C22.3819 24.6639 23.0511 24.5498 23.6608 24.1899C23.8837 24.0611 24.0986 23.9064 24.3031 23.7274C23.7296 23.9611 23.1111 24.0697 22.5206 23.9757C22.1892 23.9434 21.9039 23.7817 21.5812 23.7237C21.4997 23.712 21.4174 23.7261 21.3404 23.7652C21.5216 23.6359 22.1578 23.1149 22.3355 22.9111C22.376 23.304 22.7527 23.318 22.9766 23.2851C24.5008 23.0636 25.1902 22.1869 25.3697 21.9813C24.6123 22.3772 23.8284 22.5749 23.1294 22.5493C22.967 22.5493 22.8011 22.5279 22.6408 22.5792C22.8967 22.285 23.1379 21.9664 23.3624 21.6256C23.4495 21.9422 23.7182 21.855 23.9168 21.7842C24.3423 21.6171 24.7401 21.3341 25.0875 20.9514C25.2769 20.7519 25.6689 20.1656 25.6972 20.1126C25.0191 20.6848 24.3658 20.938 23.6812 21.1076C23.7974 20.9067 23.9086 20.6995 24.0148 20.4859C24.1337 20.73 24.3358 20.5872 24.4834 20.4609C24.9832 20.0461 25.4112 19.4815 25.7368 18.8075C25.2856 19.1652 24.8203 19.4869 24.3432 19.7709C24.4428 19.533 24.5364 19.2889 24.6241 19.0388C25.3684 19.0876 25.8461 15.9925 25.8644 14.7809C25.741 15.3355 25.5939 15.8792 25.4241 16.4092C25.3009 16.7893 24.6764 18.2585 24.6176 18.4653C24.574 18.5932 24.5572 18.7358 24.5692 18.8765C24.4624 19.1901 24.3462 19.4951 24.2208 19.7916C24.2448 18.9558 24.2835 18.1004 24.3127 17.2396C24.2461 17.4226 23.892 18.8216 23.8585 19.0363C23.6682 19.9375 23.7627 20.4396 23.889 20.5006C23.7635 20.7471 23.6313 20.9846 23.4922 21.2132C23.5064 21.0935 23.5102 20.9718 23.5035 20.8508C23.4909 20.1138 23.4796 19.3481 23.4474 18.6117C23.3751 18.8753 23.0193 20.4957 22.9997 21.1741C22.9936 21.3852 23.0245 21.6293 23.1887 21.6811C23.0096 21.9407 22.8206 22.1866 22.6225 22.4175C22.6556 22.3785 22.6957 21.7836 22.7096 21.5024C22.7331 20.8007 22.7532 19.9478 22.8215 19.2621C22.785 19.353 21.8347 22.3236 22.339 22.7299C22.3612 22.7476 21.954 23.1271 21.4619 23.5169C21.5725 23.2729 21.6082 22.9989 21.6727 22.7311C21.7133 22.5188 21.7531 22.3051 21.792 22.0899C21.8772 21.572 21.9342 21.0458 21.9627 20.5158C21.7328 21.1747 21.2568 22.5157 21.036 23.1606C20.9667 23.3626 20.9236 23.6487 21.0577 23.8018C20.7773 23.9891 20.036 24.3582 20.0395 24.3546C20.1924 24.2075 20.2873 23.872 20.4694 23.2094C20.6235 22.6487 21.147 21.5011 21.147 21.5011C21.0429 21.5457 19.2635 23.9659 19.6349 24.5132C19.6349 24.5132 18.7126 24.8988 17.1526 24.8018V24.9427C18.6228 25.0318 19.6746 24.6419 19.6746 24.6419C19.5361 25.191 20.3627 25.4351 20.6357 25.529C20.9321 25.6166 21.2351 25.652 21.5377 25.6346Z" fill="#041F1E"/>
<path d="M10.8482 25.6341C10.3577 25.6388 9.87529 25.4347 9.81837 25.4108C10.5833 25.3703 11.3344 25.1116 12.0255 24.6506C12.1702 24.5471 12.3214 24.4625 12.4771 24.3981C12.4771 24.3981 11.7656 24.0811 11.2376 23.7183C11.3093 24.0279 10.9056 24.3635 10.6404 24.4194C9.92869 24.5769 9.1997 24.4526 8.53571 24.0605C8.29287 23.9202 8.05883 23.7517 7.83603 23.5568C8.46076 23.8113 9.13435 23.9296 9.77757 23.8273C10.1386 23.792 10.4493 23.6159 10.8008 23.5528C10.8895 23.54 10.9792 23.5554 11.0631 23.598C10.8657 23.4571 10.1727 22.8896 9.97917 22.6677C9.93506 23.0956 9.52474 23.1109 9.28092 23.075C7.62068 22.8338 6.86977 21.8789 6.67434 21.6549C7.49924 22.0862 8.35308 22.3015 9.11442 22.2736C9.29136 22.2736 9.47209 22.2503 9.64665 22.3062C9.36788 21.9857 9.10525 21.6387 8.86064 21.2675C8.76577 21.6124 8.47309 21.5174 8.25679 21.4403C7.79333 21.2583 7.36005 20.95 6.98172 20.5332C6.77537 20.3159 6.34845 19.6773 6.31762 19.6195C7.05619 20.2428 7.76773 20.5186 8.51341 20.7033C8.38692 20.4845 8.2658 20.2587 8.15006 20.0262C8.02056 20.292 7.80046 20.1365 7.63965 19.9989C7.09528 19.5471 6.62906 18.9321 6.27445 18.198C6.7659 18.5876 7.27269 18.938 7.79239 19.2473C7.68392 18.9882 7.58194 18.7224 7.48643 18.4499C6.67576 18.5031 6.15539 15.1319 6.13547 13.8122C6.26993 14.4162 6.43008 15.0085 6.61504 15.5858C6.74928 15.9998 7.42951 17.6 7.49355 17.8252C7.54103 17.9645 7.55929 18.1199 7.5462 18.2731C7.66258 18.6147 7.78907 18.947 7.92569 19.2699C7.8996 18.3595 7.85738 17.4279 7.8256 16.4902C7.89817 16.6896 8.28383 18.2133 8.32035 18.4472C8.52764 19.4288 8.42471 19.9757 8.28715 20.0421C8.42376 20.3106 8.56781 20.5693 8.71928 20.8183C8.70382 20.6879 8.69968 20.5553 8.70695 20.4235C8.72071 19.6208 8.73304 18.7868 8.76814 17.9847C8.84689 18.2718 9.23444 20.0368 9.25578 20.7757C9.26242 21.0057 9.22874 21.2715 9.04991 21.328C9.24496 21.6108 9.45082 21.8785 9.66657 22.1301C9.63052 22.0875 9.58688 21.4396 9.5717 21.1333C9.54609 20.3691 9.52427 19.44 9.44979 18.6931C9.48964 18.7921 10.5247 22.0277 9.97538 22.4703C9.95119 22.4896 10.3947 22.9029 10.9307 23.3275C10.8102 23.0617 10.7713 22.7633 10.7011 22.4716C10.6569 22.2404 10.6135 22.0076 10.5712 21.7732C10.4784 21.2091 10.4163 20.636 10.3852 20.0587C10.6357 20.7764 11.1542 22.237 11.3947 22.9394C11.4701 23.1594 11.517 23.4711 11.3709 23.6379C11.6764 23.8419 12.4838 24.2439 12.48 24.2399C12.3135 24.0798 12.2101 23.7143 12.0118 22.9926C11.8439 22.3819 11.2737 21.1319 11.2737 21.1319C11.3871 21.1804 13.3253 23.8166 12.9207 24.4127C12.9207 24.4127 13.9253 24.8327 15.6245 24.727V24.8805C14.0231 24.9776 12.8775 24.5529 12.8775 24.5529C13.0283 25.151 12.128 25.4168 11.8306 25.5191C11.5078 25.6145 11.1778 25.6531 10.8482 25.6341Z" fill="#041F1E"/>
<path d="M17.6688 23.9654L16.7783 23.7843L16.3801 22.6553L15.9819 23.7843L15.0915 23.9654L15.7358 24.8444L15.5838 26.0853L16.3801 25.4995L17.1765 26.0853L17.0244 24.8444L17.6688 23.9654Z" fill="#041F1E"/>
<path d="M13.0371 19.5048V19.6571H16.5075V19.5048C16.0647 19.5048 15.5724 19.3988 15.5724 18.819V16.3196C15.7945 15.8773 16.1998 15.528 16.6681 15.2084C17.4802 15.1006 18.2802 15.5893 18.2802 17.0518V17.8286C18.2802 19.2465 19.2034 19.8095 20.1881 19.8095C20.7795 19.8095 21.0992 19.6107 21.3334 19.2C21.2463 19.1851 21.1487 19.0941 21.0617 18.9566C21.0377 19.2613 20.829 19.5048 20.5573 19.5048C20.041 19.5048 20.0034 18.4381 20.0034 17.8434V16.7322C20.0034 15.0708 18.9827 14.4911 18.0101 14.4911C17.9605 14.4911 17.899 14.4911 17.8374 14.5059C18.9452 13.8518 20.0034 13.1345 20.0034 11.7798C20.0034 10.0571 18.5639 9.14285 17.0494 9.14285H13.0371V9.29523C13.4799 9.29523 13.9722 9.40116 13.9722 9.98095V18.819C13.9722 19.3988 13.4799 19.5048 13.0371 19.5048ZM15.5724 15.3905V10.2244C15.9536 9.8583 16.3109 9.75238 16.6921 9.75238C17.6288 9.75238 18.2923 10.7893 18.2923 11.7798C18.2923 13.8964 16.4955 14.3535 15.5724 15.3905Z" fill="#041F1E"/>
</svg>
