<svg width="512" height="512" viewBox="0 0 512 512" fill="none" xmlns="http://www.w3.org/2000/svg">
<path d="M500.538 216.92C492.052 159.023 464.969 106.028 423.999 67.1988C378.262 23.8534 318.281 0 255.077 0C191.873 0 131.919 23.8534 86.1553 67.1988C45.2129 106.028 18.1293 159.1 9.64322 216.92H0V295.08H9.64322C18.1293 352.977 45.2129 405.972 86.1553 444.801C131.919 488.108 191.9 512 255.077 512C318.254 512 378.262 488.108 423.999 444.801C463.894 407.014 491.722 352.552 500.649 295.08H512V216.92H500.538ZM89.0758 73.22C133.986 30.7239 192.864 7.25639 255.077 7.25639C317.29 7.25639 376.306 30.6853 421.106 73.1814C460.588 110.621 486.817 161.493 495.276 216.881H457.557C438.271 125.327 353.576 59.1704 255.077 59.1704C157.047 59.209 71.9109 125.52 52.6244 216.92H14.9608C23.4193 161.648 49.5937 110.621 89.0758 73.22ZM443.037 295.08H452.074C451.468 297.743 450.807 300.407 450.118 303.031L443.037 295.08ZM60.6145 304.46L58.2451 295.08H68.8802L60.6145 304.46ZM5.20734 287.785V224.215H72.1864V287.785H5.20734ZM421.243 438.741C376.334 481.199 317.372 504.705 255.215 504.705C193.057 504.705 134.123 481.276 89.2136 438.741C49.5937 401.34 23.4193 350.468 14.9608 295.08H52.6795C53.8846 300.897 55.3383 306.607 57.0328 312.179L58.19 316.695L58.4104 316.425C85.4114 396.824 164.403 452.907 255.077 452.907C353.548 452.907 438.216 386.789 457.557 295.235L495.248 295.929C486.211 350.777 459.348 402.537 421.106 438.741H421.243ZM506.93 287.785H439.814V224.215H506.793L506.93 287.785Z" fill="#CD8B53"/>
<path d="M344.602 410.154C351.807 410.222 358.894 407.225 359.73 406.874C348.493 406.279 337.46 402.479 327.307 395.707C325.183 394.185 322.962 392.944 320.674 391.997C320.674 391.997 331.126 387.341 338.881 382.011C337.829 386.56 343.759 391.49 347.654 392.31C358.109 394.623 368.818 392.797 378.572 387.038C382.139 384.978 385.577 382.502 388.85 379.639C379.673 383.378 369.778 385.115 360.329 383.612C355.026 383.095 350.462 380.508 345.299 379.58C343.995 379.392 342.678 379.619 341.446 380.244C344.344 378.175 354.525 369.838 357.368 366.578C358.016 372.864 364.043 373.089 367.625 372.562C392.013 369.018 403.043 354.991 405.914 351.701C393.797 358.037 381.254 361.199 370.071 360.789C367.471 360.789 364.817 360.448 362.252 361.268C366.347 356.561 370.205 351.463 373.798 346.01C375.192 351.077 379.491 349.681 382.669 348.548C389.477 345.875 395.842 341.347 401.399 335.224C404.43 332.032 410.701 322.651 411.154 321.801C400.305 330.958 389.853 335.009 378.899 337.723C380.757 334.508 382.536 331.192 384.237 327.776C386.139 331.68 389.372 329.396 391.734 327.375C399.731 320.739 406.579 311.705 411.788 300.921C404.569 306.644 397.125 311.79 389.491 316.335C391.084 312.528 392.582 308.623 393.985 304.621C405.893 305.402 413.537 255.881 413.83 236.495C411.855 245.368 409.502 254.068 406.785 262.548C404.813 268.63 394.821 292.136 393.88 295.445C393.183 297.491 392.915 299.773 393.107 302.024C391.398 307.042 389.539 311.923 387.533 316.667C387.916 303.293 388.536 289.608 389.003 275.834C387.937 278.762 382.272 301.146 381.735 304.582C378.69 319 380.202 327.034 382.223 328.01C380.216 331.954 378.1 335.754 375.875 339.411C376.102 337.496 376.163 335.549 376.056 333.613C375.854 321.821 375.673 309.57 375.157 297.788C374.001 302.005 368.308 327.932 367.994 338.787C367.897 342.164 368.391 346.069 371.018 346.899C368.153 351.053 365.129 354.986 361.96 358.681C362.489 358.056 363.13 348.538 363.353 344.038C363.73 332.813 364.05 319.166 365.144 308.194C364.559 309.648 349.354 357.178 357.423 363.679C357.779 363.962 351.264 370.034 343.39 376.271C345.16 372.367 345.731 367.984 346.762 363.698C347.413 360.301 348.049 356.881 348.672 353.439C350.034 345.152 350.947 336.733 351.403 328.254C347.724 338.796 340.108 360.252 336.575 370.57C335.467 373.802 334.777 378.38 336.923 380.83C332.436 383.827 320.576 389.732 320.632 389.674C323.078 387.321 324.597 381.952 327.51 371.351C329.976 362.38 338.352 344.019 338.352 344.019C336.686 344.731 308.215 383.456 314.159 392.212C314.159 392.212 299.4 398.381 274.441 396.829V399.084C297.965 400.509 314.793 394.272 314.793 394.272C312.577 403.057 325.802 406.962 330.171 408.465C334.913 409.865 339.761 410.433 344.602 410.154Z" fill="#041F1E"/>
<path d="M173.571 410.146C165.724 410.22 158.005 406.956 157.094 406.573C169.334 405.925 181.35 401.786 192.409 394.41C194.723 392.753 197.142 391.4 199.634 390.369C199.634 390.369 188.25 385.298 179.802 379.493C180.948 384.447 174.49 389.817 170.247 390.71C158.859 393.23 147.195 391.241 136.572 384.968C132.686 382.724 128.941 380.028 125.377 376.909C135.372 380.981 146.15 382.874 156.441 381.236C162.217 380.673 167.188 377.855 172.812 376.845C174.232 376.64 175.667 376.887 177.009 377.568C173.852 375.314 162.764 366.234 159.667 362.683C158.961 369.53 152.396 369.774 148.495 369.2C121.931 365.341 109.917 350.062 106.79 346.479C119.988 353.379 133.65 356.824 145.831 356.378C148.662 356.378 151.554 356.005 154.347 356.899C149.886 351.772 145.684 346.219 141.77 340.28C140.253 345.798 135.57 344.278 132.109 343.044C124.694 340.132 117.761 335.201 111.708 328.531C108.406 325.054 101.575 314.837 101.082 313.912C112.899 323.885 124.284 328.297 136.215 331.253C134.191 327.752 132.253 324.14 130.401 320.419C128.329 324.672 124.808 322.184 122.235 319.983C113.525 312.754 106.065 302.914 100.391 291.169C108.255 297.402 116.363 303.008 124.678 307.957C122.943 303.811 121.311 299.558 119.783 295.199C106.812 296.049 98.4864 242.111 98.1677 220.995C100.319 230.66 102.881 240.136 105.841 249.373C107.989 255.997 118.872 281.6 119.897 285.204C120.657 287.433 120.949 289.918 120.739 292.37C122.601 297.835 124.625 303.152 126.811 308.319C126.394 293.753 125.718 278.846 125.21 263.843C126.371 267.033 132.541 291.413 133.126 295.156C136.443 310.86 134.796 319.611 132.595 320.674C134.78 324.969 137.085 329.109 139.509 333.093C139.261 331.006 139.195 328.886 139.311 326.777C139.532 313.933 139.729 300.589 140.29 287.756C141.55 292.349 147.751 320.589 148.093 332.412C148.199 336.091 147.66 340.344 144.799 341.248C147.92 345.772 151.213 350.056 154.665 354.081C154.089 353.4 153.39 343.034 153.147 338.132C152.738 325.905 152.388 311.041 151.197 299.09C151.834 300.674 168.395 352.444 159.606 359.525C159.219 359.833 166.316 366.447 174.892 373.241C172.964 368.988 172.342 364.214 171.219 359.546C170.51 355.846 169.817 352.121 169.139 348.371C167.655 339.346 166.66 330.176 166.164 320.94C170.171 332.423 178.467 355.793 182.315 367.031C183.521 370.551 184.273 375.537 181.935 378.206C186.823 381.47 199.741 387.903 199.68 387.839C197.016 385.277 195.361 379.429 192.189 367.882C189.502 358.111 180.379 338.111 180.379 338.111C182.193 338.887 213.205 381.066 206.731 390.603C206.731 390.603 222.806 397.323 249.992 395.633V398.089C224.369 399.641 206.04 392.847 206.04 392.847C208.454 402.416 194.048 406.669 189.29 408.306C184.125 409.832 178.845 410.45 173.571 410.146Z" fill="#041F1E"/>
<path d="M282.7 383.446L268.453 380.549L262.082 362.485L255.711 380.549L241.464 383.446L251.773 397.51L249.34 417.365L262.082 407.992L274.824 417.365L272.391 397.51L282.7 383.446Z" fill="#041F1E"/>
<path d="M208.593 312.077V314.515H264.12V312.077C257.035 312.077 249.158 310.382 249.158 301.105V261.114C252.712 254.038 259.197 248.448 266.69 243.334C279.683 241.61 292.484 249.429 292.484 272.829V285.258C292.484 307.944 307.254 316.953 323.009 316.953C332.472 316.953 337.587 313.771 341.334 307.2C339.941 306.963 338.38 305.506 336.987 303.305C336.603 308.182 333.264 312.077 328.917 312.077C320.656 312.077 320.055 295.01 320.055 285.495V267.715C320.055 241.134 303.724 231.857 288.161 231.857C287.368 231.857 286.384 231.857 285.399 232.095C303.123 221.629 320.055 210.152 320.055 188.477C320.055 160.915 297.023 146.286 272.79 146.286H208.593V148.724C215.678 148.724 223.556 150.419 223.556 159.696V301.105C223.556 310.382 215.678 312.077 208.593 312.077ZM249.158 246.248V163.591C255.258 157.733 260.974 156.038 267.074 156.038C282.061 156.038 292.676 172.629 292.676 188.477C292.676 222.343 263.928 229.657 249.158 246.248Z" fill="#041F1E"/>
</svg>
